<?xml version="1.0" encoding="UTF-8"?>
<svg id="Layer_2" data-name="Layer 2" xmlns="http://www.w3.org/2000/svg" viewBox="0 0 245 75.5">
  <defs>
    <style>
      .cls-1, .cls-2 {
        fill: #005524;
      }

      .cls-2 {
        stroke: #005524;
      }

      .cls-2, .cls-3 {
        stroke-miterlimit: 10;
      }

      .cls-3 {
        stroke: #fff;
      }

      .cls-3, .cls-4 {
        fill: #fff;
      }
    </style>
  </defs>
  <g id="Layer_4" data-name="Layer 4">
    <g>
      <polygon class="cls-1" points="0 75.5 71.5 30.67 75.33 30.67 77.83 28.33 82.33 33 90.83 30.17 95.67 32.67 103.83 23.17 111.67 22.17 119 14.33 125.33 14.33 140.5 0 149.17 8.17 152.17 8.17 161.17 17.5 175.83 24.33 183.67 19.5 199.17 31.17 245 75.5 0 75.5"/>
      <polygon class="cls-4" points="4.17 75.5 25.67 69.83 29.17 72.17 52.5 57.17 44.33 58.83 55 52.17 44.83 55.5 58 43.67 38.5 53.83 68.33 35.17 63.17 42 77.67 31 78.5 32.5 67.33 41 67.67 44.5 60.83 48.5 60.33 51.33 68.5 58 68.17 60.11 62.5 58.5 57.5 58.67 63.17 64.17 36.61 75.5 4.17 75.5"/>
      <path class="cls-3" d="M69.75,48.58l8.17,6.17v4.08l-1.58.5s-7.25-7.92-7.17-8.17.58-2.58.58-2.58Z"/>
      <polygon class="cls-3" points="74.75 44.67 77.17 46.17 77.58 48.58 76.75 49.67 74.75 48.58 74.75 44.67"/>
      <polygon class="cls-4" points="81.5 33.96 81.5 37.25 76.17 39.38 78.5 42.62 81.14 42.68 83.5 40.46 85.33 40.62 84.5 42.96 82 45 82.42 45.71 83.88 45.67 85.71 44.29 85.88 45.29 83 49.71 83.25 50.54 84.17 49.71 86.33 47.79 86.25 49.71 86 51.04 88.04 50.38 87.38 51.96 84.5 54.38 86.08 54.79 87.83 54.58 86.67 56.79 86.92 57.67 88.58 57.62 84.17 60.54 84.08 62.29 88.54 60.29 89.17 62.04 86 63.88 85.92 65.46 91.75 65.04 92.33 54 95.58 52.04 95.58 44.71 91.58 40.21 89.5 38.12 89.46 33.54 93 33.58 93.63 32.67 92.18 31.68 90.78 31 81.5 33.96"/>
      <path class="cls-4" d="M96,65.46v-8.87l2.58-3.83v-14.67l2.42-3.25v-1l-1.83.67-1.83-2.44,7-8,8.34-1.19,6.15-6.64,6.59.2,13.08-12.5v6.17l-2.17.33,3.75,14.42,2.5,12.83,1.5,7.92,1.58.83v3.25l-.75,2,.25,2.29,2.75,2.54v1.75l1.83,2.75,1.5,1.58,1.92.08v5l3.42,1.83,4.08,3.92,1.08,2.08h-42.08l-6-4.08.33-5h-4.17l1.08-.96,6.33-5.21-2.67-3.58-4-.17-.17-6.83,10.83-15.33.67-1.67-.92-.96-2,1.71-1,1-1.17-1.25-.75-.67-1.08,1.42-1.42.92-2.75-1.67-1.83-.17.33-2.67-2.92.67-1.58-1.42-1.67,1,.25,1.83,1,.67-1.58,1.67-.5,1.25.83.5,2-.92.33.92-2.75,2.5-.75,1.5,2.5-.79,3.17-2.79.33,1.5-1.58,2.08-1.17,2.83-.58,1.33-.25,1.92,2.92-3.17,2.67-2.42h1.67v1.75l-1.25,3-2.42,2.83-3.25,2.83-1.08,1.17.42,1.37,1.58-.71-.5,1.75-2,.75-1.75,2-.08,1.17,2.75-.33.33.75-1.33,1.17-.75,1.25.33.67,2.17.08-1.33,1.75s-1.42,1.5-1.83,1.21-5.67,0-5.67,0Z"/>
      <path class="cls-4" d="M151.5,9l4.17,4.5,4.75,5.67,14.75,6.62h2.08l4.67-3.04,1,.42v10.25l3.17,3.33-3.5,4.25.17,4.42h-1.17l-.92,1.92-.42,9.17,5.83-.5,1.67,1.08v2.08l-.67,4.92,8.25,5.08h2.08v-1.58l-5.75-3.92.08-1.17,7.67,4.75,3.75.33-3.83,5.5.17,2.42h-13.42l-10-7.25,11.42-.42-1.58-1.83-10.33-2.33-2.67,2.17-.75-.38.42-1.79h-9.83l2.58-5.08,2.28-.28.06-3.31,6.75-2,2.21-3.25-.96-3.92-2.73,2.4-2.77,2.44-3.25-2.44-1,.94-5.5-6.04,1.33-1.46,6.83,3.5,3.47-3.11,2.62-2.35,2.83-3.96-.49-1.52s-3.17,2.27-3.26,2.52-1.58-.5-1.58-.5l5-4.33,1.42-3-1.17-1.67h-2.08l-5.08,1.17-2.33-2.12-3.25,1.37-.75,3.33,2.28,4.29-.45,2.13-1.58-.17-5.42-8.08h-5.67v1.08l4.75,6.17,1.08,1.92-1.17.92-6.75-7.75-1.04.52,1.16,4.18-1.29.39v8.58l-1.92-2.04v-9.46l-2.25-2.25,3.42-2.25-1.86-4.43-2.39-5.7,3.07,2.43,3.09,2.44.33-4.25,3.55.34-.58-5-2.97-3.26.17-2.75Z"/>
      <polygon class="cls-4" points="189.92 25.83 229.75 63.67 207.75 44.75 209.33 48.92 210.33 51 209.83 53.17 208.33 52.33 203.75 40.67 208.5 57.75 210.25 58.42 211.75 58.5 222.08 65.46 216.17 73.58 212.92 64 210.25 61.42 206.5 58.58 201.08 39.71 199.5 39.71 199.08 42.62 197.67 43.83 193.42 44.5 193.42 45.58 199.25 50.67 199.25 51.5 194.75 51.33 191.25 47.67 191.08 39 196.33 36.33 196.83 35.33 189.42 27.58 189.92 25.83"/>
      <polygon class="cls-2" points="104.67 25.33 107 25.33 105.83 26.5 104.67 27.25 104.67 25.33"/>
      <path class="cls-2" d="M108.5,26.29l5-3.13s-.5,2.17-.75,2.17-4.25,3.08-4.25,3.08v-2.12Z"/>
      <polygon class="cls-2" points="112.83 27.92 120.75 19.67 113.92 29.17 112.33 29.17 112.83 27.92"/>
      <polygon class="cls-2" points="126.25 17.58 122 28.42 117.92 29.17 126.25 17.58"/>
      <polygon class="cls-2" points="131.58 17.58 130.25 28.42 128.42 30.25 126.75 30.25 131.58 17.58"/>
      <path class="cls-2" d="M133.83,30.25l.6,3.92-.85,3.58-1.5,1.42-3.13.38-1.54,3.62-.67,2.83v.92l2.42-2.83.42,1.92-1.25,3.25-4.25,4.25-3.75,2.5-1.17-1.33,1.58-3.08,3.25-7.33,2.25-4.17-1.17-.83-1.5,1.33-6.08,11.17-2.83,2.83-.67-4.33,3.33-1.42,3.62-7.52-.41-.93-2.83,2.08s2.88-4.17,3.04-4.42,2.33-2.96,3-3.38,2.5-.92,2.5-.92l2.33,1.42,1.75,1.92,1.83-.08s1.17-2.79,1.25-3.04.42-3.71.42-3.71Z"/>
      <polygon class="cls-2" points="137.33 41.67 138.75 43.5 136.08 49 132.67 51.83 129.92 53 134.58 46.75 136.83 41.67 137.33 41.67"/>
      <polygon class="cls-2" points="127.17 56.5 124.29 60.08 122.92 62.08 121.08 64.17 119.67 65 119.08 60.75 122.42 58.67 126.75 56.5 127.17 56.5"/>
      <polygon class="cls-2" points="139.42 57.08 139.83 59.33 136.67 62.5 134.33 63.67 137.08 59.58 138.75 57.08 139.42 57.08"/>
      <path class="cls-2" d="M142.08,61.42l1.33,2.75-1.75,2.08-3.92,4.42-3.42,2.42,3.33-4.67v-1.5s-1.67-.42-1.42-.67,2.62-3.42,2.62-3.42l2.71-1.42h.5Z"/>
      <path class="cls-2" d="M147.08,67.25l4.83,2.42,3.75,2.33,2.58,2-2.92.83-2.17-1.75-4.58-.75h-2.92l-5.83,2.17-3.08.33,2-1.75s3.58-3.25,3.92-3.42,3.42-2.42,3.42-2.42h1Z"/>
      <polygon class="cls-2" points="175.79 54.55 176.22 57.67 177.78 59.33 169.17 59.33 171.06 57.81 174.17 57.36 175.79 54.55"/>
      <polygon class="cls-2" points="159.79 21.17 163.71 24.17 162.88 26.58 161.75 27.25 160.21 24.21 159.79 21.17"/>
    </g>
  </g>
</svg>